<svg width="24" height="24" viewBox="0 0 24 24" fill="currentColor" xmlns="http://www.w3.org/2000/svg">
    <path d="M14.43 16.6284C15.57 16.6284 16.73 16.3982 17.9 15.968C19.07 15.5377 20.1 14.8072 21 13.7766V17.2087C19.78 18.0693 18.34 18.6497 16.67 18.9498C15 19.25 13.31 19.2801 11.6 19.0399C9.89 18.7897 8.35 18.2994 7 17.549C7.34 17.2588 7.73 17.0086 8.16 16.7785C8.59 16.5483 9.06 16.3882 9.59 16.3082C10.11 16.2181 10.64 16.2281 11.18 16.3182C12.21 16.5283 13.29 16.6284 14.44 16.6184L14.43 16.6284ZM6.27 6.09175C8.41 4.71088 10.92 4.02045 13.79 4.00044C16.66 3.98042 19.06 4.65084 21 6.00169V9.43385C20.2 8.52328 19.19 7.82284 17.97 7.33253C16.75 6.84222 15.46 6.59207 14.1 6.56205C12.74 6.53203 11.46 6.70214 10.26 7.06236C8.89 7.46261 7.81 8.03297 7.02 8.76343C6.23 9.49389 5.77 10.2944 5.63 11.1649C5.5 12.0355 5.71 12.856 6.26 13.6365C6.77 14.357 7.05 15.0974 7.09 15.8479C7.13 16.6984 7 17.549 7 17.549C5.78 16.8785 4.81 16.048 4.1 15.0274C3.39 14.0267 3.02 12.886 3 11.6052C3.04 9.30377 4.13 7.46261 6.27 6.09175Z"/>
</svg>
