<svg width="32" height="32" viewBox="0 0 32 32" fill="currentColor" xmlns="http://www.w3.org/2000/svg">
    <path d="M29.466 19.468c0-8.419-8.869-17.056-17.593-17.056-5.574 0-9.375 3.727-9.375 9.12 0 8.419 8.869 17.056 17.592 17.056 5.575 0 9.376-3.683 9.376-9.12M32 15.522C32 24.072 24.833 31 16 31S0 24.072 0 15.522C0 6.928 7.167 0 16 0s16 6.928 16 15.522"/>
    <path d="M25.12 18.224c0-5.733-5.99-11.615-11.88-11.615-3.766 0-6.332 2.538-6.332 6.21 0 5.734 5.989 11.615 11.88 11.615 3.766 0 6.332-2.508 6.332-6.21m1.712-2.687c0 5.822-4.84 10.54-10.806 10.54-5.965 0-10.805-4.718-10.805-10.54 0-5.852 4.84-10.57 10.805-10.57s10.806 4.718 10.806 10.57"/>
</svg>